<svg xmlns="http://www.w3.org/2000/svg" xmlns:xlink="http://www.w3.org/1999/xlink" version="1.1" id="Layer_1" x="0px"
     y="0px" width="100%" viewBox="0 0 1024 1024" enable-background="new 0 0 1024 1024" xml:space="preserve" style="
    /* width: 30px; */
">
                        <path fill="#000000" opacity="1.000000" stroke="none"
                              d=" M96.619476,587.729248   C99.293816,567.362244 102.395653,547.478455 104.399864,527.484741   C105.974464,511.776672 107.022362,496.016937 109.535797,480.416168   C114.927391,446.950928 123.895081,414.478912 136.344299,382.933655   C153.304672,339.957611 176.061218,300.390167 205.867920,265.065948   C264.538361,195.534988 337.005676,147.729675 426.057343,126.344154   C461.600250,117.808617 497.736938,114.808929 534.104858,116.953217   C619.974121,122.016144 696.068298,152.672806 762.479736,207.072372   C810.173218,246.139450 847.995300,293.358551 875.300537,348.712891   C896.649475,391.992462 910.927734,437.588654 918.386108,485.306427   C923.748535,519.615112 926.764893,554.230774 932.248779,588.529236   C940.620239,640.887817 951.654297,692.516663 972.292419,741.641113   C979.076599,757.789307 986.900940,773.419006 996.508606,788.109741   C997.966736,790.339233 999.462280,792.569397 1000.653564,794.943176   C1003.586609,800.787354 1002.496704,805.038391 996.629578,808.462708   C985.406860,815.012573 973.764832,820.782593 962.004822,826.319946   C911.919556,849.903748 859.516418,866.627014 805.729126,879.276245   C770.082153,887.659424 734.092468,894.289185 697.796875,898.996826   C669.603271,902.653564 641.325500,905.609680 612.921814,907.560974   C566.994690,910.716125 521.041687,910.879883 475.082489,910.018311   C436.646088,909.297852 398.378265,905.812927 360.147156,901.609375   C309.963074,896.091675 260.363861,887.553528 211.430466,875.238403   C150.016800,859.782349 90.825676,838.213135 34.211582,809.728638   C26.072857,805.633728 24.107330,800.314941 28.872849,793.247986   C55.470772,753.805054 70.186607,709.546997 81.594620,663.944580   C87.607971,639.906738 92.551018,615.645813 95.860214,591.071228   C95.992584,590.088318 96.331245,589.133179 96.619476,587.729248  M158.929535,425.399384   C127.272812,467.413605 117.137978,515.161377 123.432297,566.419678   C129.073822,612.362061 150.374573,650.351074 186.968231,679.201843   C222.889435,707.522400 263.629517,718.808777 309.050507,712.904053   C325.035980,710.825806 340.114380,713.065857 354.259979,721.310181   C366.670502,728.543152 375.833923,738.974182 384.299744,750.196594   C398.505402,769.027710 413.984039,786.585632 433.220032,800.549011   C463.437042,822.483582 496.971008,831.842041 534.040527,826.443665   C565.871338,821.808105 592.070251,805.792175 615.018799,783.981445   C628.228821,771.426270 639.087280,756.842224 650.248291,742.509766   C667.971375,719.750977 690.857178,708.658142 720.058167,712.987549   C743.544312,716.469666 766.725403,714.596130 789.035400,707.112793   C842.047363,689.331360 877.934998,653.481567 896.761658,600.946655   C906.635193,573.395142 908.536011,544.905334 904.906982,515.830688   C901.084167,485.203247 891.231445,457.127258 873.923096,431.409393   C854.485474,402.527802 827.375183,389.597778 793.225098,390.475311   C776.380310,390.908173 759.830017,394.038605 743.455933,397.918579   C713.641296,404.983429 684.600769,414.784088 655.128723,423.063873   C616.614807,433.883820 577.672974,442.648468 537.640930,444.988647   C500.932831,447.134552 464.515503,443.986328 428.424866,436.761841   C395.909515,430.252960 364.159546,420.908173 332.408966,411.546295   C301.611572,402.465546 270.948761,392.855530 238.575333,390.968933   C206.531982,389.101654 178.958130,397.635101 158.929535,425.399384  M814.470764,285.006989   C810.269287,279.836914 806.235596,274.519318 801.839478,269.520386   C770.195618,233.537125 733.755981,203.465454 691.714600,180.286011   C637.462830,150.374390 579.309326,134.997803 517.463867,133.421722   C502.136078,133.031113 486.883026,134.417450 471.652557,136.117981   C439.196381,139.741837 407.795654,147.654892 377.577179,159.903214   C322.221283,182.340393 274.301239,215.587112 233.842072,259.627594   C196.970505,299.762909 169.076279,345.343353 149.945953,396.322510   C147.615250,402.533447 145.713043,408.905182 143.612244,415.202423   C156.964783,397.742645 173.156082,384.812286 194.243240,378.315338   C211.949432,372.860077 230.101257,372.525848 248.186859,374.178314   C274.626953,376.594147 300.141144,383.796631 325.570160,391.173462   C361.827148,401.691498 397.795746,413.286682 435.022797,420.186920   C452.361053,423.400696 469.783783,426.113739 487.334839,427.469330   C502.407867,428.633484 517.540100,429.123169 532.724792,427.863892   C544.658447,426.874268 556.592224,425.859497 568.437134,424.250854   C598.990601,420.101471 628.749146,412.285492 658.367065,403.912018   C693.246948,394.050873 727.529358,381.930664 763.489502,376.152374   C786.219543,372.500000 808.895874,371.830200 831.333496,377.909149   C852.149963,383.548859 868.794739,395.484375 882.003845,412.506348   C867.288147,366.094452 844.649353,323.955688 814.470764,285.006989  M250.684235,866.706482   C291.913269,875.111877 333.419739,881.600220 375.293884,885.948975   C405.430878,889.078674 435.616791,891.614807 465.866913,892.396729   C490.648987,893.037415 515.445068,894.603699 540.290466,893.103394   C557.904114,892.039673 575.618286,892.603821 593.224915,891.468506   C621.929871,889.617554 650.634094,887.722229 679.197876,883.929993   C704.905640,880.516968 730.538269,876.744507 756.033020,872.028625   C788.936401,865.942444 821.443542,858.168091 853.524231,848.661499   C896.257019,835.998352 937.782288,820.281616 977.161560,799.218506   C978.306641,798.606140 979.668213,798.174805 980.132568,796.023438   C944.324036,735.628052 927.782959,668.394165 916.141724,598.351807   C915.294556,600.875671 914.859802,602.121765 914.457031,603.378113   C902.049744,642.075806 879.362366,673.323730 846.580139,697.320374   C815.604126,719.994690 780.951904,731.297791 742.585754,731.411682   C732.247803,731.442383 722.010803,730.315613 711.725647,729.557068   C692.337158,728.127258 677.321228,737.091797 665.577209,751.847046   C651.674561,769.314270 637.935974,786.848999 621.231445,801.875427   C586.433289,833.177856 546.350708,848.864929 499.159790,844.403442   C472.162445,841.851074 447.812134,832.230591 425.707642,816.763123   C404.037720,801.599670 386.320251,782.469421 370.737457,761.254578   C363.081879,750.831970 354.633514,741.262085 342.991211,735.068420   C334.381409,730.488159 325.248932,728.361938 315.523773,729.651672   C288.973206,733.172791 262.568237,732.469238 236.896255,724.650208   C183.322205,708.332886 145.290237,673.898132 121.419853,623.459900   C117.845673,615.907715 115.557068,607.877502 112.372162,598.747559   C100.775902,668.713257 84.818283,735.798645 48.482124,796.487061   C54.670036,800.517761 60.982586,802.709351 66.949669,805.580566   C98.817848,820.914856 131.761871,833.503967 165.463837,844.152222   C193.243851,852.929504 221.415619,860.239136 250.684235,866.706482  z"
                              style="
    stroke-width: 20px;
    stroke: #2e333d;
"></path>
    <path fill="#000000" opacity="1.000000" stroke="none"
          d=" M716.362549,433.857574   C739.839722,432.230316 761.744385,436.037689 781.361206,448.651794   C810.699707,467.516968 827.482605,494.275665 829.292114,529.435242   C831.538452,573.080933 812.657959,606.082336 774.555420,626.010681   C711.206116,659.143799 637.731445,619.357666 626.563721,553.199097   C617.544250,499.766479 650.081665,449.430481 702.656372,436.258331   C706.993896,435.171631 711.481323,434.683258 716.362549,433.857574  M808.125000,509.339539   C807.714478,508.249268 807.297180,507.161469 806.894409,506.068298   C793.218201,468.944550 753.999390,445.468048 715.080017,451.542542   C666.861328,459.068542 637.772644,503.021637 643.077881,545.807922   C649.256348,595.636414 698.744263,630.035339 747.431396,617.953308   C790.551025,607.252991 824.406677,560.066101 808.125000,509.339539  z"
          style="
    stroke-width: 20px;
    stroke: #2e333d;
"></path>
    <path fill="#000000" opacity="1.000000" stroke="none"
          d=" M216.786011,473.833862   C234.901932,450.565247 258.419250,437.079987 287.252319,434.012451   C342.738220,428.109344 387.541656,464.074341 398.258728,512.837219   C405.094696,543.940918 399.392731,572.876953 379.602325,598.083130   C358.141571,625.416687 329.664001,638.670227 294.706665,637.335144   C258.040314,635.934875 229.693787,619.293823 211.205338,588.130432   C188.278198,549.485535 191.511963,511.029572 216.786011,473.833862  M335.970581,459.547455   C320.698730,451.662781 304.478271,449.275513 287.548798,451.421021   C239.530411,457.506561 205.810181,504.759430 215.221207,551.566162   C224.108139,595.766357 266.398132,626.214783 310.802521,619.490662   C357.837311,612.368164 388.347565,568.855530 382.850281,526.212891   C378.959778,496.034210 363.479218,474.028656 335.970581,459.547455  z"
          style="
    stroke-width: 20px;
    stroke: #2e333d;
"></path>
    <path fill="#000000" opacity="1.000000" stroke="none"
          d=" M557.629944,709.347656   C566.575623,708.613037 571.536011,715.559631 568.410889,723.560791   C565.809998,730.219604 560.393738,734.127563 554.708496,737.572021   C548.978455,741.043457 545.205872,745.590393 543.439026,752.093750   C542.042725,757.233154 539.721069,762.025513 536.665222,766.472168   C525.630798,782.528381 503.595490,782.702576 492.436493,766.710449   C489.276520,762.181824 486.851471,757.242615 485.396515,751.905457   C483.790283,746.013306 480.676849,741.442322 475.290405,738.289368   C471.420776,736.024353 468.020386,733.040222 464.785004,729.888855   C462.697784,727.855896 461.101959,725.508301 460.270416,722.808655   C459.106201,719.028809 459.016785,715.106995 461.883514,711.974426   C464.573669,709.034729 467.989136,708.487732 471.936646,709.483398   C483.999969,712.526001 491.111389,720.946472 496.135864,731.545898   C498.049500,735.582825 499.304901,739.935852 500.797791,744.166931   C502.129089,747.939941 503.578796,751.650391 505.701538,755.064819   C510.772614,763.221741 518.319214,763.204407 523.316345,754.899353   C526.859985,749.009888 528.583130,742.351990 530.943115,735.958374   C535.663818,723.168823 543.374817,713.228394 557.629944,709.347656  z"
          style="
    stroke-width: 20px;
    stroke: #2e333d;
"></path>
                    </svg>